<mxfile host="app.diagrams.net" modified="2023-12-06T20:18:15.410Z" agent="Mozilla/5.0 (Windows NT 10.0; Win64; x64) AppleWebKit/537.36 (KHTML, like Gecko) Chrome/119.0.0.0 Safari/537.36 OPR/105.0.0.0" etag="yGv1pLadOm0xkKBm0PUE" version="22.1.7" type="device">
  <diagram name="1 oldal" id="3dceAF9DL8qpPGA6itf2">
    <mxGraphModel dx="3034" dy="749" grid="1" gridSize="10" guides="1" tooltips="1" connect="1" arrows="1" fold="1" page="1" pageScale="1" pageWidth="827" pageHeight="1169" math="0" shadow="0">
      <root>
        <mxCell id="0" />
        <mxCell id="1" parent="0" />
        <object label="&lt;font&gt;CEG&lt;/font&gt;" Ceg="" id="V2zS2Jwof-pgxmDwGqCu-1">
          <mxCell style="rounded=0;whiteSpace=wrap;html=1;" parent="1" vertex="1">
            <mxGeometry x="354" y="65" width="120" height="60" as="geometry" />
          </mxCell>
        </object>
        <object label="&lt;font&gt;TELEPULES&lt;/font&gt;" Ceg="" id="V2zS2Jwof-pgxmDwGqCu-3">
          <mxCell style="rounded=0;whiteSpace=wrap;html=1;" parent="1" vertex="1">
            <mxGeometry x="1490" y="65" width="120" height="60" as="geometry" />
          </mxCell>
        </object>
        <object label="&lt;font&gt;TERMEK&lt;/font&gt;" Ceg="" id="V2zS2Jwof-pgxmDwGqCu-4">
          <mxCell style="rounded=0;whiteSpace=wrap;html=1;" parent="1" vertex="1">
            <mxGeometry x="-640" y="65" width="120" height="60" as="geometry" />
          </mxCell>
        </object>
        <object label="&lt;font&gt;GYARTASI&lt;br&gt;INFORMACIO&lt;/font&gt;" Ceg="" id="V2zS2Jwof-pgxmDwGqCu-5">
          <mxCell style="rounded=0;whiteSpace=wrap;html=1;" parent="1" vertex="1">
            <mxGeometry x="-640" y="490" width="120" height="60" as="geometry" />
          </mxCell>
        </object>
        <object label="&lt;font&gt;DOLGOZO&lt;/font&gt;" Ceg="" id="V2zS2Jwof-pgxmDwGqCu-6">
          <mxCell style="rounded=0;whiteSpace=wrap;html=1;" parent="1" vertex="1">
            <mxGeometry x="354" y="490" width="120" height="60" as="geometry" />
          </mxCell>
        </object>
        <mxCell id="V2zS2Jwof-pgxmDwGqCu-7" value="&lt;font style=&quot;font-size: 9px;&quot;&gt;CEG_TERMEK&lt;/font&gt;" style="rhombus;whiteSpace=wrap;html=1;labelBackgroundColor=none;" parent="1" vertex="1">
          <mxGeometry x="-130" y="70" width="80" height="50" as="geometry" />
        </mxCell>
        <mxCell id="V2zS2Jwof-pgxmDwGqCu-9" value="termekref" style="rhombus;whiteSpace=wrap;html=1;labelBackgroundColor=none;" parent="1" vertex="1">
          <mxGeometry x="-620" y="280" width="80" height="50" as="geometry" />
        </mxCell>
        <mxCell id="V2zS2Jwof-pgxmDwGqCu-10" value="cegref" style="rhombus;whiteSpace=wrap;html=1;labelBackgroundColor=none;" parent="1" vertex="1">
          <mxGeometry x="374" y="280" width="80" height="50" as="geometry" />
        </mxCell>
        <mxCell id="V2zS2Jwof-pgxmDwGqCu-11" value="&lt;font style=&quot;font-size: 8px;&quot;&gt;CEG_TELEPULES&lt;/font&gt;" style="rhombus;whiteSpace=wrap;html=1;labelBackgroundColor=none;" parent="1" vertex="1">
          <mxGeometry x="1020" y="70" width="80" height="50" as="geometry" />
        </mxCell>
        <mxCell id="V2zS2Jwof-pgxmDwGqCu-13" value="" style="edgeStyle=entityRelationEdgeStyle;fontSize=12;html=1;endArrow=none;startArrow=ERmany;rounded=0;entryX=0;entryY=0.5;entryDx=0;entryDy=0;exitX=1;exitY=0.5;exitDx=0;exitDy=0;fontColor=#000000;endFill=0;" parent="1" source="V2zS2Jwof-pgxmDwGqCu-4" target="V2zS2Jwof-pgxmDwGqCu-7" edge="1">
          <mxGeometry width="100" height="100" relative="1" as="geometry">
            <mxPoint x="60" y="440" as="sourcePoint" />
            <mxPoint x="160" y="340" as="targetPoint" />
            <Array as="points">
              <mxPoint x="-240" y="110" />
            </Array>
          </mxGeometry>
        </mxCell>
        <mxCell id="V2zS2Jwof-pgxmDwGqCu-14" value="" style="edgeStyle=entityRelationEdgeStyle;fontSize=12;html=1;endArrow=ERmany;startArrow=none;rounded=0;entryX=0;entryY=0.5;entryDx=0;entryDy=0;exitX=1;exitY=0.5;exitDx=0;exitDy=0;fontColor=#000000;startFill=0;" parent="1" source="V2zS2Jwof-pgxmDwGqCu-7" target="V2zS2Jwof-pgxmDwGqCu-1" edge="1">
          <mxGeometry width="100" height="100" relative="1" as="geometry">
            <mxPoint x="260" y="310" as="sourcePoint" />
            <mxPoint x="360" y="210" as="targetPoint" />
          </mxGeometry>
        </mxCell>
        <mxCell id="V2zS2Jwof-pgxmDwGqCu-15" value="" style="edgeStyle=entityRelationEdgeStyle;fontSize=12;html=1;endArrow=ERmany;startArrow=none;rounded=0;entryX=1;entryY=0.5;entryDx=0;entryDy=0;exitX=0;exitY=0.5;exitDx=0;exitDy=0;fontColor=#000000;startFill=0;" parent="1" source="V2zS2Jwof-pgxmDwGqCu-11" target="V2zS2Jwof-pgxmDwGqCu-1" edge="1">
          <mxGeometry width="100" height="100" relative="1" as="geometry">
            <mxPoint x="220" y="105" as="sourcePoint" />
            <mxPoint x="364" y="105" as="targetPoint" />
          </mxGeometry>
        </mxCell>
        <mxCell id="V2zS2Jwof-pgxmDwGqCu-16" value="" style="edgeStyle=entityRelationEdgeStyle;fontSize=12;html=1;endArrow=none;startArrow=ERmany;rounded=0;entryX=1;entryY=0.5;entryDx=0;entryDy=0;exitX=0;exitY=0.5;exitDx=0;exitDy=0;fontColor=#000000;endFill=0;" parent="1" source="V2zS2Jwof-pgxmDwGqCu-3" target="V2zS2Jwof-pgxmDwGqCu-11" edge="1">
          <mxGeometry width="100" height="100" relative="1" as="geometry">
            <mxPoint x="1100" y="105" as="sourcePoint" />
            <mxPoint x="954" y="105" as="targetPoint" />
          </mxGeometry>
        </mxCell>
        <UserObject label="" id="V2zS2Jwof-pgxmDwGqCu-21">
          <mxCell style="fontSize=12;html=1;endArrow=none;startArrow=ERmandOne;rounded=0;movable=1;resizable=1;rotatable=1;deletable=1;editable=1;locked=0;connectable=1;anchorPointDirection=1;shadow=0;edgeStyle=orthogonalEdgeStyle;exitX=0.5;exitY=1;exitDx=0;exitDy=0;entryX=0.5;entryY=0;entryDx=0;entryDy=0;fontColor=#000000;endFill=0;" parent="1" source="V2zS2Jwof-pgxmDwGqCu-4" target="V2zS2Jwof-pgxmDwGqCu-9" edge="1">
            <mxGeometry width="100" height="100" relative="1" as="geometry">
              <mxPoint x="-520" y="140" as="sourcePoint" />
              <mxPoint x="-390" y="230" as="targetPoint" />
            </mxGeometry>
          </mxCell>
        </UserObject>
        <UserObject label="" id="V2zS2Jwof-pgxmDwGqCu-22">
          <mxCell style="fontSize=12;html=1;endArrow=ERmandOne;startArrow=none;rounded=0;movable=1;resizable=1;rotatable=1;deletable=1;editable=1;locked=0;connectable=1;anchorPointDirection=1;shadow=0;edgeStyle=orthogonalEdgeStyle;exitX=0.5;exitY=1;exitDx=0;exitDy=0;entryX=0.5;entryY=0;entryDx=0;entryDy=0;fontColor=#000000;startFill=0;" parent="1" source="V2zS2Jwof-pgxmDwGqCu-9" target="V2zS2Jwof-pgxmDwGqCu-5" edge="1">
            <mxGeometry width="100" height="100" relative="1" as="geometry">
              <mxPoint x="-570" y="135" as="sourcePoint" />
              <mxPoint x="-570" y="230" as="targetPoint" />
            </mxGeometry>
          </mxCell>
        </UserObject>
        <mxCell id="V2zS2Jwof-pgxmDwGqCu-23" value="" style="edgeStyle=orthogonalEdgeStyle;fontSize=12;html=1;endArrow=ERoneToMany;rounded=0;entryX=0.5;entryY=1;entryDx=0;entryDy=0;exitX=0.5;exitY=0;exitDx=0;exitDy=0;fontColor=#000000;" parent="1" source="V2zS2Jwof-pgxmDwGqCu-10" target="V2zS2Jwof-pgxmDwGqCu-1" edge="1">
          <mxGeometry width="100" height="100" relative="1" as="geometry">
            <mxPoint x="170" y="370" as="sourcePoint" />
            <mxPoint x="270" y="270" as="targetPoint" />
          </mxGeometry>
        </mxCell>
        <mxCell id="V2zS2Jwof-pgxmDwGqCu-24" value="" style="edgeStyle=orthogonalEdgeStyle;fontSize=12;html=1;endArrow=none;rounded=0;entryX=0.5;entryY=1;entryDx=0;entryDy=0;exitX=0.5;exitY=0;exitDx=0;exitDy=0;fontColor=#000000;startArrow=ERoneToMany;startFill=0;endFill=0;" parent="1" source="V2zS2Jwof-pgxmDwGqCu-6" target="V2zS2Jwof-pgxmDwGqCu-10" edge="1">
          <mxGeometry width="100" height="100" relative="1" as="geometry">
            <mxPoint x="424" y="230" as="sourcePoint" />
            <mxPoint x="424" y="135" as="targetPoint" />
          </mxGeometry>
        </mxCell>
        <mxCell id="V2zS2Jwof-pgxmDwGqCu-25" value="&lt;font&gt;&lt;u&gt;cegID&lt;/u&gt;&lt;/font&gt;" style="ellipse;whiteSpace=wrap;html=1;" parent="1" vertex="1">
          <mxGeometry x="180" y="185" width="100" height="50" as="geometry" />
        </mxCell>
        <mxCell id="V2zS2Jwof-pgxmDwGqCu-27" value="&lt;font&gt;&lt;u&gt;telepulesID&lt;/u&gt;&lt;/font&gt;" style="ellipse;whiteSpace=wrap;html=1;" parent="1" vertex="1">
          <mxGeometry x="1280" y="190" width="100" height="50" as="geometry" />
        </mxCell>
        <mxCell id="V2zS2Jwof-pgxmDwGqCu-28" value="&lt;font&gt;&lt;u&gt;dolgozoID&lt;/u&gt;&lt;/font&gt;" style="ellipse;whiteSpace=wrap;html=1;" parent="1" vertex="1">
          <mxGeometry x="140" y="640" width="100" height="50" as="geometry" />
        </mxCell>
        <mxCell id="V2zS2Jwof-pgxmDwGqCu-29" value="&lt;font&gt;&lt;u&gt;termekID&lt;/u&gt;&lt;/font&gt;" style="ellipse;whiteSpace=wrap;html=1;" parent="1" vertex="1">
          <mxGeometry x="-920" y="180" width="100" height="50" as="geometry" />
        </mxCell>
        <mxCell id="V2zS2Jwof-pgxmDwGqCu-30" value="&lt;font&gt;&lt;u&gt;gyartasi&lt;br&gt;InformacioID&lt;/u&gt;&lt;/font&gt;" style="ellipse;whiteSpace=wrap;html=1;" parent="1" vertex="1">
          <mxGeometry x="-890" y="640" width="100" height="50" as="geometry" />
        </mxCell>
        <mxCell id="V2zS2Jwof-pgxmDwGqCu-31" value="&lt;font&gt;&lt;span&gt;nev&lt;/span&gt;&lt;/font&gt;" style="ellipse;whiteSpace=wrap;html=1;fontStyle=4;" parent="1" vertex="1">
          <mxGeometry x="520" y="185" width="100" height="50" as="geometry" />
        </mxCell>
        <mxCell id="V2zS2Jwof-pgxmDwGqCu-33" value="&lt;font&gt;&lt;span&gt;tipus&lt;/span&gt;&lt;/font&gt;" style="ellipse;whiteSpace=wrap;html=1;fontStyle=4;" parent="1" vertex="1">
          <mxGeometry x="295" y="185" width="100" height="50" as="geometry" />
        </mxCell>
        <mxCell id="V2zS2Jwof-pgxmDwGqCu-34" value="&lt;font&gt;&lt;span&gt;alapitasIdeje&lt;/span&gt;&lt;/font&gt;" style="ellipse;whiteSpace=wrap;html=1;fontStyle=4;" parent="1" vertex="1">
          <mxGeometry x="634" y="185" width="100" height="50" as="geometry" />
        </mxCell>
        <mxCell id="V2zS2Jwof-pgxmDwGqCu-37" value="tulajdonosok" style="ellipse;shape=doubleEllipse;whiteSpace=wrap;html=1;" parent="1" vertex="1">
          <mxGeometry x="415" y="180" width="100" height="60" as="geometry" />
        </mxCell>
        <mxCell id="V2zS2Jwof-pgxmDwGqCu-38" value="&lt;font&gt;&lt;span&gt;ev&lt;/span&gt;&lt;/font&gt;" style="ellipse;whiteSpace=wrap;html=1;fontStyle=4;" parent="1" vertex="1">
          <mxGeometry x="530" y="265" width="100" height="50" as="geometry" />
        </mxCell>
        <mxCell id="V2zS2Jwof-pgxmDwGqCu-39" value="&lt;font&gt;&lt;span&gt;honap&lt;/span&gt;&lt;/font&gt;" style="ellipse;whiteSpace=wrap;html=1;fontStyle=4;" parent="1" vertex="1">
          <mxGeometry x="634" y="265" width="100" height="50" as="geometry" />
        </mxCell>
        <mxCell id="V2zS2Jwof-pgxmDwGqCu-40" value="&lt;font&gt;&lt;span&gt;nap&lt;/span&gt;&lt;/font&gt;" style="ellipse;whiteSpace=wrap;html=1;fontStyle=4;" parent="1" vertex="1">
          <mxGeometry x="740" y="265" width="100" height="50" as="geometry" />
        </mxCell>
        <mxCell id="V2zS2Jwof-pgxmDwGqCu-41" value="&lt;font&gt;&lt;span&gt;iranyitoszam&lt;/span&gt;&lt;/font&gt;" style="ellipse;whiteSpace=wrap;html=1;fontStyle=4;" parent="1" vertex="1">
          <mxGeometry x="1390" y="190" width="100" height="50" as="geometry" />
        </mxCell>
        <mxCell id="V2zS2Jwof-pgxmDwGqCu-42" value="&lt;font&gt;&lt;span&gt;telepulesNeve&lt;/span&gt;&lt;/font&gt;" style="ellipse;whiteSpace=wrap;html=1;fontStyle=4;" parent="1" vertex="1">
          <mxGeometry x="1500" y="190" width="100" height="50" as="geometry" />
        </mxCell>
        <mxCell id="V2zS2Jwof-pgxmDwGqCu-43" value="&lt;font&gt;&lt;span&gt;utca&lt;/span&gt;&lt;/font&gt;" style="ellipse;whiteSpace=wrap;html=1;fontStyle=4;" parent="1" vertex="1">
          <mxGeometry x="1620" y="190" width="100" height="50" as="geometry" />
        </mxCell>
        <mxCell id="V2zS2Jwof-pgxmDwGqCu-44" value="&lt;font&gt;&lt;span&gt;hazszam&lt;/span&gt;&lt;/font&gt;" style="ellipse;whiteSpace=wrap;html=1;fontStyle=4;" parent="1" vertex="1">
          <mxGeometry x="1730" y="190" width="100" height="50" as="geometry" />
        </mxCell>
        <mxCell id="V2zS2Jwof-pgxmDwGqCu-46" value="&lt;font&gt;&lt;u&gt;cegREF&lt;/u&gt;&lt;/font&gt;" style="ellipse;whiteSpace=wrap;html=1;" parent="1" vertex="1">
          <mxGeometry x="900" y="185" width="100" height="50" as="geometry" />
        </mxCell>
        <mxCell id="V2zS2Jwof-pgxmDwGqCu-47" value="&lt;font&gt;&lt;u&gt;telepulesREF&lt;/u&gt;&lt;/font&gt;" style="ellipse;whiteSpace=wrap;html=1;" parent="1" vertex="1">
          <mxGeometry x="1010" y="185" width="100" height="50" as="geometry" />
        </mxCell>
        <mxCell id="V2zS2Jwof-pgxmDwGqCu-48" value="&lt;font&gt;&lt;span&gt;alkalmazottak&lt;/span&gt;&lt;/font&gt;" style="ellipse;whiteSpace=wrap;html=1;fontStyle=4;" parent="1" vertex="1">
          <mxGeometry x="1120" y="185" width="100" height="50" as="geometry" />
        </mxCell>
        <mxCell id="V2zS2Jwof-pgxmDwGqCu-49" value="&lt;font&gt;&lt;span&gt;termekNeve&lt;br&gt;&lt;/span&gt;&lt;/font&gt;" style="ellipse;whiteSpace=wrap;html=1;fontStyle=4;" parent="1" vertex="1">
          <mxGeometry x="-810" y="180" width="100" height="50" as="geometry" />
        </mxCell>
        <mxCell id="V2zS2Jwof-pgxmDwGqCu-50" value="&lt;font&gt;&lt;span&gt;eladasiAr&lt;/span&gt;&lt;/font&gt;" style="ellipse;whiteSpace=wrap;html=1;fontStyle=4;" parent="1" vertex="1">
          <mxGeometry x="-700" y="180" width="100" height="50" as="geometry" />
        </mxCell>
        <mxCell id="V2zS2Jwof-pgxmDwGqCu-52" value="alkatreszek" style="ellipse;shape=doubleEllipse;whiteSpace=wrap;html=1;" parent="1" vertex="1">
          <mxGeometry x="-560" y="175" width="100" height="60" as="geometry" />
        </mxCell>
        <mxCell id="V2zS2Jwof-pgxmDwGqCu-53" value="vevok" style="ellipse;shape=doubleEllipse;whiteSpace=wrap;html=1;" parent="1" vertex="1">
          <mxGeometry x="-450" y="175" width="100" height="60" as="geometry" />
        </mxCell>
        <mxCell id="V2zS2Jwof-pgxmDwGqCu-54" value="&lt;font&gt;&lt;u&gt;cegREF&lt;/u&gt;&lt;/font&gt;" style="ellipse;whiteSpace=wrap;html=1;" parent="1" vertex="1">
          <mxGeometry x="-220" y="180" width="100" height="50" as="geometry" />
        </mxCell>
        <mxCell id="V2zS2Jwof-pgxmDwGqCu-55" value="&lt;font&gt;&lt;u&gt;termekREF&lt;/u&gt;&lt;/font&gt;" style="ellipse;whiteSpace=wrap;html=1;" parent="1" vertex="1">
          <mxGeometry x="-60" y="180" width="100" height="50" as="geometry" />
        </mxCell>
        <mxCell id="V2zS2Jwof-pgxmDwGqCu-56" value="&lt;font&gt;&lt;span&gt;gyartasiKoltseg&lt;/span&gt;&lt;/font&gt;" style="ellipse;whiteSpace=wrap;html=1;fontStyle=4;" parent="1" vertex="1">
          <mxGeometry x="-760" y="640" width="100" height="50" as="geometry" />
        </mxCell>
        <mxCell id="V2zS2Jwof-pgxmDwGqCu-57" value="&lt;font&gt;&lt;span&gt;gyartasiIdo&lt;/span&gt;&lt;/font&gt;" style="ellipse;whiteSpace=wrap;html=1;fontStyle=4;" parent="1" vertex="1">
          <mxGeometry x="-630" y="640" width="100" height="50" as="geometry" />
        </mxCell>
        <mxCell id="V2zS2Jwof-pgxmDwGqCu-58" value="&lt;font&gt;&lt;span&gt;selejtekSzama&lt;/span&gt;&lt;/font&gt;" style="ellipse;whiteSpace=wrap;html=1;fontStyle=4;" parent="1" vertex="1">
          <mxGeometry x="-493" y="640" width="100" height="50" as="geometry" />
        </mxCell>
        <mxCell id="V2zS2Jwof-pgxmDwGqCu-59" value="&lt;font&gt;&lt;span&gt;dolgozokSzama&lt;/span&gt;&lt;/font&gt;" style="ellipse;whiteSpace=wrap;html=1;fontStyle=4;" parent="1" vertex="1">
          <mxGeometry x="-370" y="640" width="100" height="50" as="geometry" />
        </mxCell>
        <mxCell id="V2zS2Jwof-pgxmDwGqCu-60" value="&lt;font&gt;&lt;span&gt;dolgozoNeve&lt;/span&gt;&lt;/font&gt;" style="ellipse;whiteSpace=wrap;html=1;fontStyle=4;" parent="1" vertex="1">
          <mxGeometry x="254" y="640" width="100" height="50" as="geometry" />
        </mxCell>
        <mxCell id="V2zS2Jwof-pgxmDwGqCu-61" value="&lt;font&gt;&lt;span&gt;belepesiDatum&lt;/span&gt;&lt;/font&gt;" style="ellipse;whiteSpace=wrap;html=1;fontStyle=4;" parent="1" vertex="1">
          <mxGeometry x="364" y="640" width="100" height="50" as="geometry" />
        </mxCell>
        <mxCell id="V2zS2Jwof-pgxmDwGqCu-62" value="&lt;font&gt;&lt;span&gt;munkakor&lt;/span&gt;&lt;/font&gt;" style="ellipse;whiteSpace=wrap;html=1;fontStyle=4;" parent="1" vertex="1">
          <mxGeometry x="474" y="640" width="100" height="50" as="geometry" />
        </mxCell>
        <mxCell id="V2zS2Jwof-pgxmDwGqCu-63" value="&lt;font&gt;&lt;span&gt;fizetes&lt;/span&gt;&lt;/font&gt;" style="ellipse;whiteSpace=wrap;html=1;fontStyle=4;" parent="1" vertex="1">
          <mxGeometry x="590" y="640" width="100" height="50" as="geometry" />
        </mxCell>
        <mxCell id="V2zS2Jwof-pgxmDwGqCu-64" value="" style="endArrow=none;html=1;rounded=0;entryX=0.5;entryY=1;entryDx=0;entryDy=0;exitX=0.5;exitY=0;exitDx=0;exitDy=0;fontColor=#000000;" parent="1" source="V2zS2Jwof-pgxmDwGqCu-52" target="V2zS2Jwof-pgxmDwGqCu-4" edge="1">
          <mxGeometry width="50" height="50" relative="1" as="geometry">
            <mxPoint x="-480" y="510" as="sourcePoint" />
            <mxPoint x="-430" y="460" as="targetPoint" />
          </mxGeometry>
        </mxCell>
        <mxCell id="V2zS2Jwof-pgxmDwGqCu-65" value="" style="endArrow=none;html=1;rounded=0;entryX=0.5;entryY=1;entryDx=0;entryDy=0;exitX=0.5;exitY=0;exitDx=0;exitDy=0;fontColor=#000000;" parent="1" source="V2zS2Jwof-pgxmDwGqCu-53" target="V2zS2Jwof-pgxmDwGqCu-4" edge="1">
          <mxGeometry width="50" height="50" relative="1" as="geometry">
            <mxPoint x="-500" y="185" as="sourcePoint" />
            <mxPoint x="-570" y="135" as="targetPoint" />
          </mxGeometry>
        </mxCell>
        <mxCell id="V2zS2Jwof-pgxmDwGqCu-66" value="" style="endArrow=none;html=1;rounded=0;entryX=0.5;entryY=1;entryDx=0;entryDy=0;exitX=0.5;exitY=0;exitDx=0;exitDy=0;fontColor=#000000;" parent="1" source="V2zS2Jwof-pgxmDwGqCu-50" target="V2zS2Jwof-pgxmDwGqCu-4" edge="1">
          <mxGeometry width="50" height="50" relative="1" as="geometry">
            <mxPoint x="-490" y="195" as="sourcePoint" />
            <mxPoint x="-560" y="145" as="targetPoint" />
          </mxGeometry>
        </mxCell>
        <mxCell id="V2zS2Jwof-pgxmDwGqCu-67" value="" style="endArrow=none;html=1;rounded=0;exitX=0.5;exitY=0;exitDx=0;exitDy=0;entryX=0.5;entryY=1;entryDx=0;entryDy=0;fontColor=#000000;" parent="1" source="V2zS2Jwof-pgxmDwGqCu-49" target="V2zS2Jwof-pgxmDwGqCu-4" edge="1">
          <mxGeometry width="50" height="50" relative="1" as="geometry">
            <mxPoint x="-480" y="205" as="sourcePoint" />
            <mxPoint x="-580" y="130" as="targetPoint" />
          </mxGeometry>
        </mxCell>
        <mxCell id="V2zS2Jwof-pgxmDwGqCu-68" value="" style="endArrow=none;html=1;rounded=0;entryX=0.5;entryY=1;entryDx=0;entryDy=0;exitX=0.5;exitY=0;exitDx=0;exitDy=0;fontColor=#000000;" parent="1" source="V2zS2Jwof-pgxmDwGqCu-29" target="V2zS2Jwof-pgxmDwGqCu-4" edge="1">
          <mxGeometry width="50" height="50" relative="1" as="geometry">
            <mxPoint x="-470" y="215" as="sourcePoint" />
            <mxPoint x="-540" y="165" as="targetPoint" />
          </mxGeometry>
        </mxCell>
        <mxCell id="V2zS2Jwof-pgxmDwGqCu-69" value="" style="endArrow=none;html=1;rounded=0;entryX=0.5;entryY=1;entryDx=0;entryDy=0;exitX=0.5;exitY=0;exitDx=0;exitDy=0;fontColor=#000000;" parent="1" source="V2zS2Jwof-pgxmDwGqCu-59" target="V2zS2Jwof-pgxmDwGqCu-5" edge="1">
          <mxGeometry width="50" height="50" relative="1" as="geometry">
            <mxPoint x="-460" y="225" as="sourcePoint" />
            <mxPoint x="-530" y="175" as="targetPoint" />
          </mxGeometry>
        </mxCell>
        <mxCell id="V2zS2Jwof-pgxmDwGqCu-70" value="" style="endArrow=none;html=1;rounded=0;entryX=0.5;entryY=0;entryDx=0;entryDy=0;exitX=0.5;exitY=1;exitDx=0;exitDy=0;fontColor=#000000;" parent="1" source="V2zS2Jwof-pgxmDwGqCu-5" target="V2zS2Jwof-pgxmDwGqCu-58" edge="1">
          <mxGeometry width="50" height="50" relative="1" as="geometry">
            <mxPoint x="-450" y="235" as="sourcePoint" />
            <mxPoint x="-520" y="185" as="targetPoint" />
          </mxGeometry>
        </mxCell>
        <mxCell id="V2zS2Jwof-pgxmDwGqCu-71" value="" style="endArrow=none;html=1;rounded=0;entryX=0.5;entryY=1;entryDx=0;entryDy=0;fontColor=#000000;" parent="1" source="V2zS2Jwof-pgxmDwGqCu-57" target="V2zS2Jwof-pgxmDwGqCu-5" edge="1">
          <mxGeometry width="50" height="50" relative="1" as="geometry">
            <mxPoint x="-440" y="245" as="sourcePoint" />
            <mxPoint x="-510" y="195" as="targetPoint" />
          </mxGeometry>
        </mxCell>
        <mxCell id="V2zS2Jwof-pgxmDwGqCu-72" value="" style="endArrow=none;html=1;rounded=0;entryX=0.5;entryY=1;entryDx=0;entryDy=0;exitX=0.5;exitY=0;exitDx=0;exitDy=0;fontColor=#000000;" parent="1" source="V2zS2Jwof-pgxmDwGqCu-56" target="V2zS2Jwof-pgxmDwGqCu-5" edge="1">
          <mxGeometry width="50" height="50" relative="1" as="geometry">
            <mxPoint x="-430" y="255" as="sourcePoint" />
            <mxPoint x="-500" y="205" as="targetPoint" />
          </mxGeometry>
        </mxCell>
        <mxCell id="V2zS2Jwof-pgxmDwGqCu-73" value="" style="endArrow=none;html=1;rounded=0;entryX=0.5;entryY=1;entryDx=0;entryDy=0;exitX=0.5;exitY=0;exitDx=0;exitDy=0;fontColor=#000000;" parent="1" source="V2zS2Jwof-pgxmDwGqCu-30" target="V2zS2Jwof-pgxmDwGqCu-5" edge="1">
          <mxGeometry width="50" height="50" relative="1" as="geometry">
            <mxPoint x="-420" y="265" as="sourcePoint" />
            <mxPoint x="-490" y="215" as="targetPoint" />
          </mxGeometry>
        </mxCell>
        <mxCell id="V2zS2Jwof-pgxmDwGqCu-74" value="" style="endArrow=none;html=1;rounded=0;entryX=0.5;entryY=1;entryDx=0;entryDy=0;exitX=0.5;exitY=0;exitDx=0;exitDy=0;fontColor=#000000;" parent="1" source="V2zS2Jwof-pgxmDwGqCu-54" target="V2zS2Jwof-pgxmDwGqCu-7" edge="1">
          <mxGeometry width="50" height="50" relative="1" as="geometry">
            <mxPoint x="-410" y="275" as="sourcePoint" />
            <mxPoint x="-480" y="225" as="targetPoint" />
          </mxGeometry>
        </mxCell>
        <mxCell id="V2zS2Jwof-pgxmDwGqCu-75" value="" style="endArrow=none;html=1;rounded=0;entryX=0.5;entryY=1;entryDx=0;entryDy=0;exitX=0.5;exitY=0;exitDx=0;exitDy=0;fontColor=#000000;" parent="1" source="V2zS2Jwof-pgxmDwGqCu-55" target="V2zS2Jwof-pgxmDwGqCu-7" edge="1">
          <mxGeometry width="50" height="50" relative="1" as="geometry">
            <mxPoint x="-400" y="285" as="sourcePoint" />
            <mxPoint x="-470" y="235" as="targetPoint" />
          </mxGeometry>
        </mxCell>
        <mxCell id="V2zS2Jwof-pgxmDwGqCu-76" value="" style="endArrow=none;html=1;rounded=0;exitX=0.5;exitY=0;exitDx=0;exitDy=0;entryX=0.5;entryY=1;entryDx=0;entryDy=0;fontColor=#000000;" parent="1" source="V2zS2Jwof-pgxmDwGqCu-25" target="V2zS2Jwof-pgxmDwGqCu-1" edge="1">
          <mxGeometry width="50" height="50" relative="1" as="geometry">
            <mxPoint x="240" y="330" as="sourcePoint" />
            <mxPoint x="170" y="280" as="targetPoint" />
          </mxGeometry>
        </mxCell>
        <mxCell id="V2zS2Jwof-pgxmDwGqCu-77" value="" style="endArrow=none;html=1;rounded=0;exitX=0.5;exitY=0;exitDx=0;exitDy=0;entryX=0.5;entryY=1;entryDx=0;entryDy=0;fontColor=#000000;" parent="1" source="V2zS2Jwof-pgxmDwGqCu-33" target="V2zS2Jwof-pgxmDwGqCu-1" edge="1">
          <mxGeometry width="50" height="50" relative="1" as="geometry">
            <mxPoint x="240" y="195" as="sourcePoint" />
            <mxPoint x="424" y="135" as="targetPoint" />
          </mxGeometry>
        </mxCell>
        <mxCell id="V2zS2Jwof-pgxmDwGqCu-78" value="" style="endArrow=none;html=1;rounded=0;exitX=0.5;exitY=0;exitDx=0;exitDy=0;entryX=0.5;entryY=1;entryDx=0;entryDy=0;fontColor=#000000;" parent="1" source="V2zS2Jwof-pgxmDwGqCu-37" target="V2zS2Jwof-pgxmDwGqCu-1" edge="1">
          <mxGeometry width="50" height="50" relative="1" as="geometry">
            <mxPoint x="250" y="205" as="sourcePoint" />
            <mxPoint x="434" y="145" as="targetPoint" />
          </mxGeometry>
        </mxCell>
        <mxCell id="V2zS2Jwof-pgxmDwGqCu-79" value="" style="endArrow=none;html=1;rounded=0;exitX=0.5;exitY=0;exitDx=0;exitDy=0;entryX=0.5;entryY=1;entryDx=0;entryDy=0;fontColor=#000000;" parent="1" source="V2zS2Jwof-pgxmDwGqCu-31" target="V2zS2Jwof-pgxmDwGqCu-1" edge="1">
          <mxGeometry width="50" height="50" relative="1" as="geometry">
            <mxPoint x="260" y="215" as="sourcePoint" />
            <mxPoint x="444" y="155" as="targetPoint" />
          </mxGeometry>
        </mxCell>
        <mxCell id="V2zS2Jwof-pgxmDwGqCu-80" value="" style="endArrow=none;html=1;rounded=0;exitX=0.5;exitY=0;exitDx=0;exitDy=0;entryX=0.5;entryY=1;entryDx=0;entryDy=0;fontColor=#000000;" parent="1" source="V2zS2Jwof-pgxmDwGqCu-34" target="V2zS2Jwof-pgxmDwGqCu-1" edge="1">
          <mxGeometry width="50" height="50" relative="1" as="geometry">
            <mxPoint x="270" y="225" as="sourcePoint" />
            <mxPoint x="454" y="165" as="targetPoint" />
          </mxGeometry>
        </mxCell>
        <mxCell id="V2zS2Jwof-pgxmDwGqCu-81" value="" style="endArrow=none;html=1;rounded=0;exitX=0.5;exitY=1;exitDx=0;exitDy=0;entryX=0.5;entryY=0;entryDx=0;entryDy=0;fontColor=#000000;" parent="1" source="V2zS2Jwof-pgxmDwGqCu-34" target="V2zS2Jwof-pgxmDwGqCu-38" edge="1">
          <mxGeometry width="50" height="50" relative="1" as="geometry">
            <mxPoint x="280" y="235" as="sourcePoint" />
            <mxPoint x="464" y="175" as="targetPoint" />
          </mxGeometry>
        </mxCell>
        <mxCell id="V2zS2Jwof-pgxmDwGqCu-82" value="" style="endArrow=none;html=1;rounded=0;exitX=0.5;exitY=1;exitDx=0;exitDy=0;entryX=0.5;entryY=0;entryDx=0;entryDy=0;fontColor=#000000;" parent="1" source="V2zS2Jwof-pgxmDwGqCu-34" target="V2zS2Jwof-pgxmDwGqCu-39" edge="1">
          <mxGeometry width="50" height="50" relative="1" as="geometry">
            <mxPoint x="694" y="245" as="sourcePoint" />
            <mxPoint x="590" y="275" as="targetPoint" />
          </mxGeometry>
        </mxCell>
        <mxCell id="V2zS2Jwof-pgxmDwGqCu-83" value="" style="endArrow=none;html=1;rounded=0;exitX=0.5;exitY=1;exitDx=0;exitDy=0;entryX=0.5;entryY=0;entryDx=0;entryDy=0;fontColor=#000000;" parent="1" source="V2zS2Jwof-pgxmDwGqCu-34" target="V2zS2Jwof-pgxmDwGqCu-40" edge="1">
          <mxGeometry width="50" height="50" relative="1" as="geometry">
            <mxPoint x="704" y="255" as="sourcePoint" />
            <mxPoint x="600" y="285" as="targetPoint" />
          </mxGeometry>
        </mxCell>
        <mxCell id="V2zS2Jwof-pgxmDwGqCu-84" value="" style="endArrow=none;html=1;rounded=0;exitX=0.5;exitY=1;exitDx=0;exitDy=0;entryX=0.5;entryY=0;entryDx=0;entryDy=0;fontColor=#000000;" parent="1" source="V2zS2Jwof-pgxmDwGqCu-6" target="V2zS2Jwof-pgxmDwGqCu-61" edge="1">
          <mxGeometry width="50" height="50" relative="1" as="geometry">
            <mxPoint x="694" y="245" as="sourcePoint" />
            <mxPoint x="694" y="275" as="targetPoint" />
          </mxGeometry>
        </mxCell>
        <mxCell id="V2zS2Jwof-pgxmDwGqCu-85" value="" style="endArrow=none;html=1;rounded=0;exitX=0.5;exitY=1;exitDx=0;exitDy=0;entryX=0.5;entryY=0;entryDx=0;entryDy=0;fontColor=#000000;" parent="1" source="V2zS2Jwof-pgxmDwGqCu-6" target="V2zS2Jwof-pgxmDwGqCu-63" edge="1">
          <mxGeometry width="50" height="50" relative="1" as="geometry">
            <mxPoint x="704" y="255" as="sourcePoint" />
            <mxPoint x="704" y="285" as="targetPoint" />
          </mxGeometry>
        </mxCell>
        <mxCell id="V2zS2Jwof-pgxmDwGqCu-86" value="" style="endArrow=none;html=1;rounded=0;exitX=0.5;exitY=1;exitDx=0;exitDy=0;entryX=0.5;entryY=0;entryDx=0;entryDy=0;fontColor=#000000;" parent="1" source="V2zS2Jwof-pgxmDwGqCu-6" target="V2zS2Jwof-pgxmDwGqCu-28" edge="1">
          <mxGeometry width="50" height="50" relative="1" as="geometry">
            <mxPoint x="714" y="265" as="sourcePoint" />
            <mxPoint x="714" y="295" as="targetPoint" />
          </mxGeometry>
        </mxCell>
        <mxCell id="V2zS2Jwof-pgxmDwGqCu-87" value="" style="endArrow=none;html=1;rounded=0;exitX=0.5;exitY=1;exitDx=0;exitDy=0;entryX=0.5;entryY=0;entryDx=0;entryDy=0;fontColor=#000000;" parent="1" source="V2zS2Jwof-pgxmDwGqCu-6" target="V2zS2Jwof-pgxmDwGqCu-60" edge="1">
          <mxGeometry width="50" height="50" relative="1" as="geometry">
            <mxPoint x="724" y="275" as="sourcePoint" />
            <mxPoint x="724" y="305" as="targetPoint" />
          </mxGeometry>
        </mxCell>
        <mxCell id="V2zS2Jwof-pgxmDwGqCu-88" value="" style="endArrow=none;html=1;rounded=0;entryX=0.5;entryY=0;entryDx=0;entryDy=0;exitX=0.5;exitY=1;exitDx=0;exitDy=0;fontColor=#000000;" parent="1" source="V2zS2Jwof-pgxmDwGqCu-6" target="V2zS2Jwof-pgxmDwGqCu-62" edge="1">
          <mxGeometry width="50" height="50" relative="1" as="geometry">
            <mxPoint x="410" y="550" as="sourcePoint" />
            <mxPoint x="734" y="315" as="targetPoint" />
          </mxGeometry>
        </mxCell>
        <mxCell id="V2zS2Jwof-pgxmDwGqCu-89" value="" style="endArrow=none;html=1;rounded=0;exitX=0.5;exitY=1;exitDx=0;exitDy=0;entryX=0.5;entryY=0;entryDx=0;entryDy=0;fontColor=#000000;" parent="1" source="V2zS2Jwof-pgxmDwGqCu-11" target="V2zS2Jwof-pgxmDwGqCu-47" edge="1">
          <mxGeometry width="50" height="50" relative="1" as="geometry">
            <mxPoint x="744" y="295" as="sourcePoint" />
            <mxPoint x="744" y="325" as="targetPoint" />
          </mxGeometry>
        </mxCell>
        <mxCell id="V2zS2Jwof-pgxmDwGqCu-90" value="" style="endArrow=none;html=1;rounded=0;exitX=0.5;exitY=1;exitDx=0;exitDy=0;entryX=0.5;entryY=0;entryDx=0;entryDy=0;fontColor=#000000;" parent="1" source="V2zS2Jwof-pgxmDwGqCu-11" target="V2zS2Jwof-pgxmDwGqCu-46" edge="1">
          <mxGeometry width="50" height="50" relative="1" as="geometry">
            <mxPoint x="754" y="305" as="sourcePoint" />
            <mxPoint x="754" y="335" as="targetPoint" />
          </mxGeometry>
        </mxCell>
        <mxCell id="V2zS2Jwof-pgxmDwGqCu-91" value="" style="endArrow=none;html=1;rounded=0;exitX=0.5;exitY=1;exitDx=0;exitDy=0;entryX=0.5;entryY=0;entryDx=0;entryDy=0;fontColor=#000000;" parent="1" source="V2zS2Jwof-pgxmDwGqCu-11" target="V2zS2Jwof-pgxmDwGqCu-48" edge="1">
          <mxGeometry width="50" height="50" relative="1" as="geometry">
            <mxPoint x="764" y="315" as="sourcePoint" />
            <mxPoint x="764" y="345" as="targetPoint" />
          </mxGeometry>
        </mxCell>
        <mxCell id="V2zS2Jwof-pgxmDwGqCu-92" value="" style="endArrow=none;html=1;rounded=0;exitX=0.5;exitY=1;exitDx=0;exitDy=0;fontColor=#000000;" parent="1" source="V2zS2Jwof-pgxmDwGqCu-3" target="V2zS2Jwof-pgxmDwGqCu-42" edge="1">
          <mxGeometry width="50" height="50" relative="1" as="geometry">
            <mxPoint x="1070" y="130" as="sourcePoint" />
            <mxPoint x="1180" y="195" as="targetPoint" />
          </mxGeometry>
        </mxCell>
        <mxCell id="V2zS2Jwof-pgxmDwGqCu-93" value="" style="endArrow=none;html=1;rounded=0;exitX=0.5;exitY=1;exitDx=0;exitDy=0;entryX=0.5;entryY=0;entryDx=0;entryDy=0;fontColor=#000000;" parent="1" source="V2zS2Jwof-pgxmDwGqCu-3" target="V2zS2Jwof-pgxmDwGqCu-41" edge="1">
          <mxGeometry width="50" height="50" relative="1" as="geometry">
            <mxPoint x="1080" y="140" as="sourcePoint" />
            <mxPoint x="1190" y="205" as="targetPoint" />
          </mxGeometry>
        </mxCell>
        <mxCell id="V2zS2Jwof-pgxmDwGqCu-94" value="" style="endArrow=none;html=1;rounded=0;exitX=0.5;exitY=1;exitDx=0;exitDy=0;entryX=0.5;entryY=0;entryDx=0;entryDy=0;fontColor=#000000;" parent="1" source="V2zS2Jwof-pgxmDwGqCu-3" target="V2zS2Jwof-pgxmDwGqCu-27" edge="1">
          <mxGeometry width="50" height="50" relative="1" as="geometry">
            <mxPoint x="1090" y="150" as="sourcePoint" />
            <mxPoint x="1200" y="215" as="targetPoint" />
          </mxGeometry>
        </mxCell>
        <mxCell id="V2zS2Jwof-pgxmDwGqCu-95" value="" style="endArrow=none;html=1;rounded=0;exitX=0.5;exitY=1;exitDx=0;exitDy=0;entryX=0.5;entryY=0;entryDx=0;entryDy=0;fontColor=#000000;" parent="1" source="V2zS2Jwof-pgxmDwGqCu-3" target="V2zS2Jwof-pgxmDwGqCu-43" edge="1">
          <mxGeometry width="50" height="50" relative="1" as="geometry">
            <mxPoint x="1100" y="160" as="sourcePoint" />
            <mxPoint x="1210" y="225" as="targetPoint" />
          </mxGeometry>
        </mxCell>
        <mxCell id="V2zS2Jwof-pgxmDwGqCu-96" value="" style="endArrow=none;html=1;rounded=0;exitX=0.5;exitY=1;exitDx=0;exitDy=0;entryX=0.5;entryY=0;entryDx=0;entryDy=0;fontColor=#000000;" parent="1" source="V2zS2Jwof-pgxmDwGqCu-3" target="V2zS2Jwof-pgxmDwGqCu-44" edge="1">
          <mxGeometry width="50" height="50" relative="1" as="geometry">
            <mxPoint x="1110" y="170" as="sourcePoint" />
            <mxPoint x="1220" y="235" as="targetPoint" />
          </mxGeometry>
        </mxCell>
      </root>
    </mxGraphModel>
  </diagram>
</mxfile>
